<svg id="Layer_1" data-name="Layer 1" xmlns="http://www.w3.org/2000/svg" viewBox="0 0 78.2 63.35"><title>LOGO_BLACK</title><path d="M42.19,80.52c0,0.88.51,1.09,1.12,0.46l13.6-13.71A4.41,4.41,0,0,0,58,64.56V35.93A2,2,0,0,1,59.68,34H72.52a4.27,4.27,0,0,0,2.72-1l13.69-13.8c0.62-.62.41-1.24-0.47-1.24H59.76A4.69,4.69,0,0,0,57,19.32L43.35,33.07a4.57,4.57,0,0,0-1.13,2.77Z" transform="translate(-11.09 -18)"/><path d="M53.58,18c0.88,0,1.09.66,0.47,1.28L40.35,32.92A4.38,4.38,0,0,1,37.63,34H11.91c-0.88,0-1.09-.38-0.47-1L25.14,19.22A4.54,4.54,0,0,1,27.86,18H53.58Z" transform="translate(-11.09 -18)"/><path d="M60,37.92A2,2,0,0,1,61.67,36h8.85c0.88,0,1.08.67,0.46,1.28L61.17,47c-0.62.62-1.17,0.48-1.17-.39V37.92Z" transform="translate(-11.09 -18)"/></svg>